<svg width="25" height="24" viewBox="0 0 25 24" fill="none" xmlns="http://www.w3.org/2000/svg">
<path d="M22.3333 11.5C22.3371 12.8199 21.9945 14.1219 21.3333 15.3C20.5493 16.7118 19.3441 17.8992 17.8527 18.7293C16.3612 19.5594 14.6425 19.9994 12.8889 20C11.4223 20.0035 9.97565 19.6951 8.66664 19.1L2.33331 21L4.44442 15.3C3.78323 14.1219 3.4406 12.8199 3.44442 11.5C3.4451 9.92179 3.93399 8.37488 4.85633 7.03258C5.77867 5.69028 7.09803 4.6056 8.66664 3.90003C9.97565 3.30496 11.4223 2.99659 12.8889 3.00003H13.4444C15.7603 3.11502 17.9478 3.99479 19.5879 5.47089C21.228 6.94699 22.2055 8.91568 22.3333 11V11.5Z" stroke="#D6D2D2" stroke-width="2" stroke-linecap="round" stroke-linejoin="round"/>
<circle cx="9.33331" cy="11" r="1" fill="#D6D2D2"/>
<circle cx="13.3333" cy="11" r="1" fill="#D6D2D2"/>
<circle cx="17.3333" cy="11" r="1" fill="#D6D2D2"/>
</svg>
