<svg width="33" height="32" viewBox="0 0 33 32" fill="none" xmlns="http://www.w3.org/2000/svg">
<g clip-path="url(#clip0_611_201)">
<path fill-rule="evenodd" clip-rule="evenodd" d="M16 0C16.3978 0 16.7794 0.158035 17.0607 0.43934C17.342 0.720644 17.5 1.10218 17.5 1.5V6H24.768C25.596 6 26.396 6.294 27.028 6.828L31.168 10.328C31.5563 10.6566 31.8684 11.0658 32.0825 11.5273C32.2965 11.9887 32.4074 12.4913 32.4074 13C32.4074 13.5087 32.2965 14.0113 32.0825 14.4727C31.8684 14.9342 31.5563 15.3434 31.168 15.672L27.028 19.172C26.3962 19.7065 25.5955 19.9999 24.768 20H17.5V30.5C17.5 30.8978 17.342 31.2794 17.0607 31.5607C16.7794 31.842 16.3978 32 16 32C15.6022 32 15.2206 31.842 14.9393 31.5607C14.658 31.2794 14.5 30.8978 14.5 30.5V20H6C5.07174 20 4.1815 19.6313 3.52513 18.9749C2.86875 18.3185 2.5 17.4283 2.5 16.5V9.5C2.5 7.568 4.068 6 6 6H14.5V1.5C14.5 1.10218 14.658 0.720644 14.9393 0.43934C15.2206 0.158035 15.6022 0 16 0V0ZM16 17H24.768C24.8861 16.9993 25.0002 16.9568 25.09 16.88L29.23 13.38C29.2849 13.3331 29.329 13.2748 29.3592 13.2092C29.3894 13.1436 29.405 13.0722 29.405 13C29.405 12.9278 29.3894 12.8564 29.3592 12.7908C29.329 12.7252 29.2849 12.6669 29.23 12.62L25.09 9.12C25.0002 9.04321 24.8861 9.0007 24.768 9H6C5.86739 9 5.74021 9.05268 5.64645 9.14645C5.55268 9.24021 5.5 9.36739 5.5 9.5V16.5C5.5 16.776 5.724 17 6 17H16Z" fill="white"/>
</g>
<defs>
<clipPath id="clip0_611_201">
<rect width="32" height="32" fill="white" transform="translate(0.5)"/>
</clipPath>
</defs>
</svg>
