<svg width="15" height="14" viewBox="0 0 15 14" fill="none" xmlns="http://www.w3.org/2000/svg">
<path d="M7.19596 0.792577C7.381 0.426927 7.90318 0.426926 8.08822 0.792577L9.88586 4.3449C9.95958 4.49057 10.0998 4.59108 10.2614 4.61413L14.2613 5.1844C14.6751 5.2434 14.8382 5.75397 14.5351 6.04189L11.6577 8.77566C11.5362 8.89108 11.4806 9.05969 11.5096 9.22473L12.1907 13.0985C12.2623 13.5054 11.8376 13.8185 11.4701 13.63L7.8703 11.7834C7.72703 11.7099 7.55715 11.7099 7.41388 11.7834L3.81409 13.63C3.44656 13.8185 3.0219 13.5054 3.09344 13.0985L3.77458 9.22473C3.8036 9.05969 3.74801 8.89108 3.62652 8.77566L0.749057 6.04189C0.446011 5.75398 0.609046 5.2434 1.02287 5.1844L5.02276 4.61413C5.1844 4.59108 5.3246 4.49057 5.39832 4.3449L7.19596 0.792577Z" fill="#E68F3F"/>
</svg>
