<svg width="22" height="21" viewBox="0 0 22 21" fill="none" xmlns="http://www.w3.org/2000/svg">
<g clip-path="url(#clip0_611_179)">
<path d="M20.808 2.68699L14.408 0.553652H14.3333C14.2837 0.548662 14.2337 0.548662 14.184 0.553652H13.7253L7.66668 2.63365L1.60802 0.553652C1.44761 0.500758 1.27693 0.486714 1.11003 0.512676C0.943128 0.538638 0.78478 0.603864 0.648016 0.702986C0.510158 0.801136 0.397632 0.930679 0.319733 1.08091C0.241834 1.23115 0.200798 1.39776 0.200016 1.56699V16.5003C0.199439 16.7239 0.269156 16.9421 0.399314 17.1239C0.529472 17.3058 0.713487 17.4421 0.925349 17.5137L7.32535 19.647C7.54023 19.7171 7.77181 19.7171 7.98668 19.647L14.0667 17.6203L20.1254 19.7003C20.2386 19.7157 20.3534 19.7157 20.4667 19.7003C20.6897 19.7035 20.9074 19.6321 21.0854 19.4977C21.2232 19.3995 21.3357 19.27 21.4136 19.1197C21.4915 18.9695 21.5326 18.8029 21.5333 18.6337V3.70032C21.5339 3.4767 21.4642 3.25855 21.3341 3.07671C21.2039 2.89488 21.0199 2.75854 20.808 2.68699ZM6.60002 17.151L2.33335 15.7323V3.04965L6.60002 4.46832V17.151ZM13 15.7323L8.73335 17.151V4.46832L13 3.04965V15.7323ZM19.4 17.151L15.1333 15.7323V3.04965L19.4 4.46832V17.151Z" fill="#5EDFFF"/>
</g>
<defs>
<clipPath id="clip0_611_179">
<rect width="21.6" height="20" fill="white" transform="translate(0.200012 0.5)"/>
</clipPath>
</defs>
</svg>
