<svg width="32" height="32" viewBox="0 0 32 32" fill="none" xmlns="http://www.w3.org/2000/svg">
<path d="M29 14C29.2652 14 29.5196 13.8946 29.7071 13.7071C29.8946 13.5196 30 13.2652 30 13V8C30 7.46957 29.7893 6.96086 29.4142 6.58579C29.0391 6.21071 28.5304 6 28 6H4C3.46957 6 2.96086 6.21071 2.58579 6.58579C2.21071 6.96086 2 7.46957 2 8V13C2 13.2652 2.10536 13.5196 2.29289 13.7071C2.48043 13.8946 2.73478 14 3 14C3.53043 14 4.03914 14.2107 4.41421 14.5858C4.78929 14.9609 5 15.4696 5 16C5 16.5304 4.78929 17.0391 4.41421 17.4142C4.03914 17.7893 3.53043 18 3 18C2.73478 18 2.48043 18.1054 2.29289 18.2929C2.10536 18.4804 2 18.7348 2 19V24C2 24.5304 2.21071 25.0391 2.58579 25.4142C2.96086 25.7893 3.46957 26 4 26H28C28.5304 26 29.0391 25.7893 29.4142 25.4142C29.7893 25.0391 30 24.5304 30 24V19C30 18.7348 29.8946 18.4804 29.7071 18.2929C29.5196 18.1054 29.2652 18 29 18C28.4696 18 27.9609 17.7893 27.5858 17.4142C27.2107 17.0391 27 16.5304 27 16C27 15.4696 27.2107 14.9609 27.5858 14.5858C27.9609 14.2107 28.4696 14 29 14ZM28 19.87V24H21V21H19V24H4V19.87C4.856 19.6463 5.61366 19.1451 6.15442 18.4448C6.69518 17.7445 6.98852 16.8848 6.98852 16C6.98852 15.1152 6.69518 14.2555 6.15442 13.5552C5.61366 12.8549 4.856 12.3537 4 12.13V8H19V11H21V8H28V12.13C27.144 12.3537 26.3863 12.8549 25.8456 13.5552C25.3048 14.2555 25.0115 15.1152 25.0115 16C25.0115 16.8848 25.3048 17.7445 25.8456 18.4448C26.3863 19.1451 27.144 19.6463 28 19.87Z" fill="white"/>
<path d="M19 13H21V19H19V13Z" fill="white"/>
</svg>
