<svg width="32" height="32" viewBox="0 0 32 32" fill="none" xmlns="http://www.w3.org/2000/svg">
<path d="M26.86 11.0267L28.944 8.94267L27.0587 7.05733L24.7814 9.33333C23.3814 8.49333 21.7494 8 20 8C14.8547 8 10.6667 12.1867 10.6667 17.3333C10.6667 22.48 14.8547 26.6667 20 26.6667C25.1454 26.6667 29.3334 22.48 29.3334 17.3333C29.3323 14.9947 28.449 12.7425 26.86 11.0267ZM20 24C16.324 24 13.3334 21.0093 13.3334 17.3333C13.3334 13.6573 16.324 10.6667 20 10.6667C23.676 10.6667 26.6667 13.6573 26.6667 17.3333C26.6667 21.0093 23.676 24 20 24Z" fill="white"/>
<path d="M18.6667 13.3333H21.3334V18.6667H18.6667V13.3333ZM17.3334 4H22.6667V6.66667H17.3334V4ZM4.00002 10.6667H9.33335V13.3333H4.00002V10.6667ZM4.00002 21.3333H9.33335V24H4.00002V21.3333ZM2.66669 16H7.98669V18.6667H2.66669V16Z" fill="white"/>
</svg>
